<svg width="36" height="40" viewBox="0 0 36 40" fill="none" xmlns="http://www.w3.org/2000/svg">
<path fill-rule="evenodd" clip-rule="evenodd" d="M33.8421 9.59563L34.7792 7.29319C34.7792 7.29319 33.587 6.01365 32.1388 4.56393C30.6909 3.11391 27.6243 3.96693 27.6243 3.96693L24.1321 0H11.867L8.37482 3.96693C8.37482 3.96693 5.30854 3.11421 3.86064 4.56393C2.41244 6.01395 1.21996 7.29258 1.21996 7.29258L2.15702 9.59502L0.964844 13.0065C0.964844 13.0065 4.47129 26.3067 4.88233 27.9311C5.69137 31.1294 6.24499 32.3658 8.545 33.986C10.8444 35.6066 15.0182 38.4211 15.6996 38.8473C16.3809 39.2738 17.2327 40 17.9993 40C18.7658 40 19.6177 39.2738 20.299 38.8473C20.9806 38.4207 25.1541 35.6066 27.4538 33.986C29.7536 32.3658 30.3072 31.1294 31.1162 27.9311C31.5273 26.307 35.0343 13.0068 35.0343 13.0068L33.8421 9.59563Z" fill="url(#paint0_linear_597_2404)"/>
<path fill-rule="evenodd" clip-rule="evenodd" d="M26.6445 6.4826C26.6445 6.4826 31.1365 11.9193 31.1365 13.0814C31.1365 14.2433 30.5714 14.5499 30.0032 15.1542L26.6354 18.735C26.3169 19.0738 25.6531 19.5874 26.0436 20.512C26.4337 21.4366 27.0091 22.613 26.3691 23.8064C25.729 24.9995 24.6324 25.7961 23.9298 25.6645C23.2269 25.5325 21.5767 24.6692 20.9697 24.2748C20.363 23.8804 18.4397 22.2918 18.4397 21.6842C18.4397 21.0766 20.4279 19.9854 20.795 19.7376C21.1626 19.4897 22.838 18.5302 22.8723 18.1538C22.9066 17.777 22.8936 17.6666 22.3991 16.7359C21.9046 15.8052 21.014 14.5633 21.1623 13.737C21.3107 12.9109 22.7467 12.4811 23.7711 12.0937C24.7962 11.7063 26.7692 10.9743 27.0155 10.8606C27.2621 10.7468 27.1984 10.6385 26.4516 10.5675C25.7053 10.4966 23.5864 10.215 22.6312 10.4817C21.6756 10.7483 20.0439 11.1539 19.9116 11.369C19.7796 11.5841 19.6628 11.5914 19.7988 12.3334C19.9344 13.075 20.6333 16.6355 20.7012 17.2677C20.7689 17.9002 20.9014 18.3182 20.2207 18.4741C19.5397 18.63 18.3933 18.9006 17.9993 18.9006C17.6055 18.9006 16.4588 18.63 15.7778 18.4741C15.0968 18.3182 15.2297 17.9002 15.2976 17.2677C15.3653 16.6355 16.0642 13.0754 16.2001 12.3334C16.3357 11.5914 16.2192 11.5841 16.0869 11.3687C15.9547 11.1539 14.3226 10.7483 13.3674 10.4817C12.4121 10.215 10.2935 10.4969 9.54697 10.5675C8.80012 10.6385 8.73641 10.7465 8.98274 10.8606C9.22936 10.9743 11.2027 11.7063 12.2274 12.0937C13.2521 12.4811 14.6882 12.9109 14.8362 13.737C14.9846 14.5633 14.0939 15.8052 13.5998 16.7359C13.1053 17.6666 13.0922 17.777 13.1265 18.1538C13.1608 18.5302 14.8362 19.4897 15.2036 19.7376C15.5706 19.9854 17.5591 21.0766 17.5591 21.6842C17.5591 22.2918 15.6359 23.8804 15.0288 24.2748C14.4221 24.6692 12.7719 25.5325 12.069 25.6642C11.3662 25.7961 10.2696 24.9998 9.62948 23.8064C8.98941 22.613 9.56487 21.4366 9.95498 20.512C10.3454 19.5874 9.68196 19.0738 9.36344 18.735L5.99532 15.1542C5.42715 14.5499 4.8623 14.2433 4.8623 13.0814C4.8623 11.9196 9.35404 6.4826 9.35404 6.4826C9.35404 6.4826 13.1444 7.20761 13.6556 7.20761C14.1664 7.20761 15.2737 6.7811 16.2959 6.44013C17.3179 6.09886 17.9993 6.09644 17.9993 6.09644C17.9993 6.09644 18.6806 6.09886 19.7029 6.44013C20.7252 6.7811 21.8324 7.20761 22.3433 7.20761C22.8544 7.20761 26.6445 6.4826 26.6445 6.4826ZM23.2773 27.2792C23.5552 27.4536 23.3856 27.7822 23.1326 27.9614C22.8793 28.1404 19.4754 30.7796 19.145 31.0714C18.8147 31.3632 18.3293 31.845 17.9993 31.845C17.6692 31.845 17.1839 31.3632 16.8535 31.0714C16.5229 30.7796 13.1192 28.1407 12.8662 27.9614C12.6129 27.7822 12.4434 27.4536 12.7212 27.2792C12.9994 27.1051 13.8694 26.6652 15.0698 26.0433C16.2699 25.4215 17.766 24.8927 17.9993 24.8927C18.2328 24.8927 19.7284 25.4215 20.929 26.0433C22.1294 26.6652 22.9991 27.1051 23.2773 27.2792Z" fill="white"/>
<path d="M27.624 3.96693L24.1319 0H11.8667L8.37453 3.96693C8.37453 3.96693 5.30825 3.11421 3.86035 4.56393C3.86035 4.56393 7.94863 4.19445 9.35406 6.48263C9.35406 6.48263 13.1444 7.20764 13.6556 7.20764C14.1664 7.20764 15.2737 6.78113 16.296 6.44016C17.318 6.09889 17.9993 6.09647 17.9993 6.09647C17.9993 6.09647 18.6806 6.09889 19.7029 6.44016C20.7252 6.78113 21.8324 7.20764 22.3433 7.20764C22.8544 7.20764 26.6448 6.48263 26.6448 6.48263C28.0499 4.19445 32.1385 4.56393 32.1385 4.56393C30.6906 3.11391 27.624 3.96693 27.624 3.96693Z" fill="url(#paint1_linear_597_2404)"/>
<defs>
<linearGradient id="paint0_linear_597_2404" x1="0.964844" y1="2028.24" x2="3407.91" y2="2028.24" gradientUnits="userSpaceOnUse">
<stop stop-color="#FF5500"/>
<stop offset="0.40988" stop-color="#FF5500"/>
<stop offset="0.58198" stop-color="#FF2000"/>
<stop offset="1" stop-color="#FF2000"/>
</linearGradient>
<linearGradient id="paint1_linear_597_2404" x1="64.6019" y1="365.471" x2="2831.68" y2="365.471" gradientUnits="userSpaceOnUse">
<stop stop-color="#FF452A"/>
<stop offset="1" stop-color="#FF2000"/>
</linearGradient>
</defs>
</svg>
