<svg width="40" height="40" viewBox="0 0 40 40" fill="none" xmlns="http://www.w3.org/2000/svg">
<g clip-path="url(#clip0_597_2361)">
<path d="M39.0728 0L21.9092 13.5465L25.1009 5.56317L39.0728 0Z" fill="#E17726"/>
<path d="M0.967266 0.0161133L14.9018 5.56428L17.9324 13.6523L0.967266 0.0161133ZM32.1655 28.8098L39.7516 28.9638L37.1004 38.5708L27.8437 35.8523L32.1655 28.8098ZM7.83414 28.8098L12.1399 35.8523L2.89883 38.5709L0.263672 28.9638L7.83414 28.8098Z" fill="#E27625"/>
<path d="M17.5204 11.5921L17.8304 22.2726L8.55371 21.8224L11.1925 17.5761L11.2259 17.5352L17.5204 11.5921ZM22.3834 11.4729L28.774 17.5356L28.8071 17.5762L31.4459 21.8226L22.1712 22.2726L22.3834 11.4729ZM12.4117 28.8407L17.477 33.0506L11.5929 36.0807L12.4117 28.8407ZM27.5892 28.8401L28.3909 36.0809L22.5232 33.0502L27.5892 28.8401Z" fill="#E27625"/>
<path d="M22.653 32.6536L28.6073 35.7289L23.0687 38.5366L23.1262 36.6809L22.653 32.6536ZM17.3457 32.6549L16.8912 36.6506L16.9285 38.5344L11.377 35.7289L17.3457 32.6549Z" fill="#D5BFB2"/>
<path d="M15.6262 23.6665L17.1821 27.1545L11.8848 25.4992L15.6262 23.6665ZM24.3738 23.6668L28.1329 25.4992L22.8182 27.154L24.3738 23.6668Z" fill="#233447"/>
<path d="M12.8169 28.8051L11.9606 36.3118L7.37109 28.9693L12.8169 28.8051ZM27.1841 28.8053L32.63 28.9693L28.0233 36.3121L27.1841 28.8053ZM31.5803 21.3979L27.617 25.7065L24.5613 24.2169L23.0983 27.4976L22.1392 21.8561L31.5803 21.3979ZM8.41828 21.3979L17.8612 21.8561L16.902 27.4976L15.4388 24.2175L12.3992 25.7066L8.41828 21.3979Z" fill="#CC6228"/>
<path d="M8.15137 20.5135L12.6354 25.3671L12.7907 30.1585L8.15137 20.5135ZM31.854 20.5049L27.2062 30.1671L27.3812 25.3671L31.854 20.5049ZM17.6421 20.8092L17.8226 22.0209L18.2686 25.0394L17.9818 34.3102L16.6264 26.8627L16.6259 26.7857L17.6421 20.8092ZM22.3564 20.7924L23.3753 26.7857L23.3748 26.8627L22.0159 34.3289L21.9621 32.4614L21.7501 24.9844L22.3564 20.7924Z" fill="#E27525"/>
<path d="M27.7796 25.1743L27.6279 29.3373L22.8976 33.2685L21.9414 32.5478L23.0132 26.6586L27.7796 25.1743ZM12.2373 25.1743L16.9871 26.6586L18.059 32.5478L17.1028 33.2685L12.3723 29.337L12.2373 25.1743Z" fill="#F5841F"/>
<path d="M10.4717 34.8096L16.5236 37.8682L16.4979 36.5621L17.0043 36.0879H22.994L23.5187 36.5604L23.48 37.8656L29.4936 34.8172L26.5673 37.3966L23.029 39.9887H16.9557L13.4198 37.3859L10.4717 34.8096Z" fill="#C0AC9D"/>
<path d="M22.2193 32.2466L23.0749 32.8914L23.5763 37.1587L22.8507 36.5052H17.1513L16.4395 37.1719L16.9245 32.8917L17.7804 32.2466H22.2193Z" fill="#161616"/>
<path d="M37.9397 0.375L40 6.96783L38.7133 13.634L39.6295 14.3878L38.3897 15.3968L39.3216 16.1645L38.0877 17.363L38.8452 17.9482L36.8348 20.4525L28.5895 17.8917L28.5181 17.8508L22.5764 12.5045L37.9397 0.375ZM2.06031 0.375L17.4237 12.5045L11.4819 17.8508L11.4105 17.8917L3.16516 20.4525L1.15484 17.9482L1.91172 17.3635L0.678594 16.1645L1.60859 15.3977L0.350156 14.3858L1.30094 13.6315L0 6.96817L2.06031 0.375Z" fill="#763E1A"/>
<path d="M28.1863 17.3316L36.9227 20.0447L39.761 29.3757H32.2729L27.1135 29.4451L30.8657 21.6437L28.1863 17.3316ZM11.8138 17.3316L9.13395 21.6437L12.8866 29.4451L7.72957 29.3757H0.254883L3.07723 20.0449L11.8138 17.3316ZM25.5288 5.51855L23.0852 12.5584L22.5666 22.0684L22.3682 25.0492L22.3524 32.6639H17.6475L17.6322 25.0636L17.4332 22.0659L16.9144 12.5584L14.4711 5.51855H25.5288Z" fill="#F5841F"/>
</g>
<defs>
<clipPath id="clip0_597_2361">
<rect width="40" height="40" fill="white"/>
</clipPath>
</defs>
</svg>
