<svg width="1440" height="1024" viewBox="0 0 1440 1024" fill="none" xmlns="http://www.w3.org/2000/svg">
<g opacity="0.2">
<path d="M1000 813.874L992.473 818.769C991.569 819.371 990.289 819.145 989.686 818.166L984.791 810.635C984.188 809.732 984.414 808.451 985.393 807.849L992.924 802.953C993.828 802.351 995.108 802.577 995.711 803.556L1000.61 811.087C1001.21 812.066 1000.91 813.271 1000 813.874Z" fill="#5BF7FF"/>
<path d="M1067.56 746.395L1060.03 751.29C1059.12 751.892 1057.84 751.666 1057.24 750.687L1052.35 743.156C1051.74 742.252 1051.97 740.972 1052.95 740.37L1060.48 735.474C1061.38 734.872 1062.66 735.098 1063.27 736.077L1068.16 743.608C1068.76 744.512 1068.46 745.792 1067.56 746.395Z" fill="#5BF7FF"/>
<path d="M1101.37 724.253L1093.84 729.148C1092.94 729.751 1091.66 729.525 1091.06 728.546L1086.16 721.015C1085.56 720.111 1085.78 718.831 1086.76 718.228L1094.29 713.333C1095.2 712.731 1096.48 712.957 1097.08 713.936L1101.98 721.467C1102.5 722.37 1102.28 723.651 1101.37 724.253Z" fill="#5BF7FF"/>
<path d="M1104.46 786.31L1064.02 812.819C1062.51 813.798 1060.48 813.347 1059.5 811.916C1058.52 810.409 1058.97 808.376 1060.4 807.397L1100.85 780.887C1102.35 779.908 1104.39 780.36 1105.36 781.791C1106.34 783.297 1105.97 785.331 1104.46 786.31Z" fill="#00ACEC"/>
<path d="M1149.5 631.394L1133.15 642.089C1132.25 642.691 1130.97 642.465 1130.37 641.486L1125.47 633.955C1124.87 633.051 1125.1 631.771 1126.07 631.168L1142.42 620.474C1143.32 619.872 1144.6 620.098 1145.2 621.077L1150.1 628.608C1150.63 629.587 1150.4 630.792 1149.5 631.394Z" fill="#00ACEC"/>
<path d="M1202.74 657.829L1195.21 662.724C1194.31 663.326 1193.03 663.1 1192.42 662.121L1187.53 654.59C1186.93 653.687 1187.15 652.406 1188.13 651.804L1195.66 646.909C1196.57 646.306 1197.85 646.532 1198.45 647.511L1203.34 655.042C1203.87 656.021 1203.65 657.226 1202.74 657.829Z" fill="#5BF7FF"/>
<path d="M1270.3 613.545L1262.77 618.441C1261.86 619.043 1260.58 618.817 1259.98 617.838L1255.08 610.307C1254.48 609.403 1254.71 608.123 1255.69 607.521L1263.22 602.625C1264.12 602.023 1265.4 602.249 1266 603.228L1270.9 610.759C1271.5 611.738 1271.2 612.943 1270.3 613.545Z" fill="#5BF7FF"/>
<path d="M1064.24 679.443L1056.71 684.338C1055.81 684.941 1054.53 684.715 1053.93 683.736L1049.03 676.205C1048.43 675.301 1048.66 674.02 1049.63 673.418L1057.17 668.523C1058.07 667.92 1059.35 668.146 1059.95 669.125L1064.85 676.656C1065.45 677.635 1065.15 678.84 1064.24 679.443Z" fill="#5BF7FF"/>
<path d="M1005.88 709.944L998.347 714.839C997.443 715.442 996.163 715.216 995.561 714.237L990.665 706.706C990.063 705.802 990.289 704.522 991.268 703.919L998.799 699.024C999.703 698.421 1000.98 698.647 1001.59 699.627L1006.48 707.158C1007.01 708.137 1006.78 709.342 1005.88 709.944Z" fill="#CC2E78"/>
<path d="M1241.08 704.597L1233.54 709.492C1232.64 710.095 1231.36 709.869 1230.76 708.89L1225.86 701.359C1225.26 700.455 1225.49 699.175 1226.47 698.572L1234 693.677C1234.9 693.074 1236.18 693.3 1236.78 694.279L1241.68 701.81C1242.28 702.714 1241.98 703.994 1241.08 704.597Z" fill="#F9DD3A"/>
</g>
<g opacity="0.2">
<path d="M104.554 413.769L98.9126 416.794L101.937 422.435L107.579 419.411L104.554 413.769Z" fill="#5BF7FF"/>
<path d="M140.721 383.501L135.079 386.526L138.104 392.167L143.745 389.143L140.721 383.501Z" fill="#5BF7FF"/>
<path d="M158.316 374.022L152.674 377.047L155.699 382.688L161.341 379.664L158.316 374.022Z" fill="#5BF7FF"/>
<path d="M186.046 330.471L175.758 335.987L178.783 341.628L189.071 336.113L186.046 330.471Z" fill="#00ACEC"/>
<path d="M211.131 345.766L205.489 348.791L208.514 354.432L214.156 351.408L211.131 345.766Z" fill="#5BF7FF"/>
<path d="M246.279 326.862L240.638 329.886L243.662 335.528L249.304 332.503L246.279 326.862Z" fill="#5BF7FF"/>
<path d="M141.976 350.388L136.334 353.413L139.359 359.054L145 356.03L141.976 350.388Z" fill="#5BF7FF"/>
</g>
<g opacity="0.2">
<path d="M276.62 368.312L272.154 370.316L274.158 374.782L278.624 372.778L276.62 368.312Z" fill="#5BF7FF"/>
<path d="M305.666 347.21L301.2 349.214L303.204 353.68L307.67 351.676L305.666 347.21Z" fill="#5BF7FF"/>
<path d="M319.467 341.064L315.001 343.068L317.005 347.535L321.471 345.531L319.467 341.064Z" fill="#5BF7FF"/>
<path d="M342.804 309.533L334.695 313.171L336.699 317.637L344.808 313.999L342.804 309.533Z" fill="#00ACEC"/>
<path d="M360.966 322.421L356.5 324.426L358.504 328.892L362.97 326.888L360.966 322.421Z" fill="#5BF7FF"/>
<path d="M388.677 310.004L384.211 312.008L386.215 316.474L390.681 314.47L388.677 310.004Z" fill="#5BF7FF"/>
<path d="M308.375 322.215L303.909 324.219L305.913 328.686L310.379 326.682L308.375 322.215Z" fill="#5BF7FF"/>
</g>
<path d="M769.801 0L1440 575.556L1290.35 1338.11L0 76.308L769.801 0Z" stroke="url(#paint0_linear_244_417)" stroke-width="0.326242" stroke-miterlimit="10"/>
<path d="M151.735 61.2683L1322.23 1175.71" stroke="url(#paint1_linear_244_417)" stroke-width="0.326242" stroke-miterlimit="10"/>
<path d="M276.686 48.8711L1347.54 1046.72" stroke="url(#paint2_linear_244_417)" stroke-width="0.326242" stroke-miterlimit="10"/>
<path d="M381.377 38.4966L1368.13 941.731" stroke="url(#paint3_linear_244_417)" stroke-width="0.326242" stroke-miterlimit="10"/>
<path d="M470.409 29.688L1385.22 854.689" stroke="url(#paint4_linear_244_417)" stroke-width="0.326242" stroke-miterlimit="10"/>
<path d="M546.978 22.0864L1399.61 781.317" stroke="url(#paint5_linear_244_417)" stroke-width="0.326242" stroke-miterlimit="10"/>
<path d="M613.596 15.4966L1411.91 718.614" stroke="url(#paint6_linear_244_417)" stroke-width="0.326242" stroke-miterlimit="10"/>
<path d="M672.026 9.68945L1422.55 664.457" stroke="url(#paint7_linear_244_417)" stroke-width="0.326242" stroke-miterlimit="10"/>
<path d="M723.736 4.56738L1431.84 617.185" stroke="url(#paint8_linear_244_417)" stroke-width="0.326242" stroke-miterlimit="10"/>
<path d="M1383.89 527.37L1172.32 1222.66" stroke="url(#paint9_linear_244_417)" stroke-width="0.326242" stroke-miterlimit="10"/>
<path d="M1328.62 479.902L1057.94 1110.82" stroke="url(#paint10_linear_244_417)" stroke-width="0.326242" stroke-miterlimit="10"/>
<path d="M1274.14 433.119L947.048 1002.38" stroke="url(#paint11_linear_244_417)" stroke-width="0.326242" stroke-miterlimit="10"/>
<path d="M1220.44 386.988L839.486 897.198" stroke="url(#paint12_linear_244_417)" stroke-width="0.326242" stroke-miterlimit="10"/>
<path d="M1167.49 341.543L735.122 795.183" stroke="url(#paint13_linear_244_417)" stroke-width="0.326242" stroke-miterlimit="10"/>
<path d="M1115.32 296.717L633.823 696.103" stroke="url(#paint14_linear_244_417)" stroke-width="0.326242" stroke-miterlimit="10"/>
<path d="M1063.88 252.544L535.461 599.927" stroke="url(#paint15_linear_244_417)" stroke-width="0.326242" stroke-miterlimit="10"/>
<path d="M1013.14 208.991L439.872 506.458" stroke="url(#paint16_linear_244_417)" stroke-width="0.326242" stroke-miterlimit="10"/>
<path d="M963.132 166.025L346.958 415.6" stroke="url(#paint17_linear_244_417)" stroke-width="0.326242" stroke-miterlimit="10"/>
<path d="M913.804 123.678L256.622 327.254" stroke="url(#paint18_linear_244_417)" stroke-width="0.326242" stroke-miterlimit="10"/>
<path d="M865.129 81.887L168.765 241.322" stroke="url(#paint19_linear_244_417)" stroke-width="0.326242" stroke-miterlimit="10"/>
<path d="M817.139 40.6499L83.2573 157.706" stroke="url(#paint20_linear_244_417)" stroke-width="0.326242" stroke-miterlimit="10"/>
<path opacity="0.26" d="M261.407 741.646L27.0381 884.812L285.582 1124.15L492.161 952.818L261.407 741.646Z" fill="url(#paint21_linear_244_417)"/>
<path opacity="0.06" d="M1054.74 713.78L886.415 884.812L1118.98 1089.28L1271.18 901.531L1054.74 713.78Z" fill="url(#paint22_linear_244_417)"/>
<path opacity="0.1" d="M762.679 443.563L685.334 497.335L816.376 611.583L888.073 552.087L762.679 443.563Z" fill="url(#paint23_linear_244_417)"/>
<defs>
<linearGradient id="paint0_linear_244_417" x1="-0.358866" y1="669.138" x2="1440.18" y2="669.138" gradientUnits="userSpaceOnUse">
<stop stop-color="#5083C2"/>
<stop offset="1" stop-color="#5082C2" stop-opacity="0"/>
</linearGradient>
<linearGradient id="paint1_linear_244_417" x1="151.617" y1="618.491" x2="1322.34" y2="618.491" gradientUnits="userSpaceOnUse">
<stop stop-color="#5083C2"/>
<stop offset="1" stop-color="#5082C2" stop-opacity="0"/>
</linearGradient>
<linearGradient id="paint2_linear_244_417" x1="276.577" y1="547.793" x2="1347.66" y2="547.793" gradientUnits="userSpaceOnUse">
<stop stop-color="#5083C2"/>
<stop offset="1" stop-color="#5082C2" stop-opacity="0"/>
</linearGradient>
<linearGradient id="paint3_linear_244_417" x1="381.281" y1="490.126" x2="1368.25" y2="490.126" gradientUnits="userSpaceOnUse">
<stop stop-color="#5083C2"/>
<stop offset="1" stop-color="#5082C2" stop-opacity="0"/>
</linearGradient>
<linearGradient id="paint4_linear_244_417" x1="470.284" y1="442.186" x2="1385.33" y2="442.186" gradientUnits="userSpaceOnUse">
<stop stop-color="#5083C2"/>
<stop offset="1" stop-color="#5082C2" stop-opacity="0"/>
</linearGradient>
<linearGradient id="paint5_linear_244_417" x1="546.872" y1="401.703" x2="1399.73" y2="401.703" gradientUnits="userSpaceOnUse">
<stop stop-color="#5083C2"/>
<stop offset="1" stop-color="#5082C2" stop-opacity="0"/>
</linearGradient>
<linearGradient id="paint6_linear_244_417" x1="613.473" y1="367.06" x2="1412.03" y2="367.06" gradientUnits="userSpaceOnUse">
<stop stop-color="#5083C2"/>
<stop offset="1" stop-color="#5082C2" stop-opacity="0"/>
</linearGradient>
<linearGradient id="paint7_linear_244_417" x1="671.921" y1="337.077" x2="1422.66" y2="337.077" gradientUnits="userSpaceOnUse">
<stop stop-color="#5083C2"/>
<stop offset="1" stop-color="#5082C2" stop-opacity="0"/>
</linearGradient>
<linearGradient id="paint8_linear_244_417" x1="723.626" y1="310.873" x2="1431.94" y2="310.873" gradientUnits="userSpaceOnUse">
<stop stop-color="#5083C2"/>
<stop offset="1" stop-color="#5082C2" stop-opacity="0"/>
</linearGradient>
<linearGradient id="paint9_linear_244_417" x1="1172.15" y1="875.017" x2="1384.05" y2="875.017" gradientUnits="userSpaceOnUse">
<stop stop-color="#5083C2"/>
<stop offset="1" stop-color="#5082C2" stop-opacity="0"/>
</linearGradient>
<linearGradient id="paint10_linear_244_417" x1="1057.77" y1="795.352" x2="1328.76" y2="795.352" gradientUnits="userSpaceOnUse">
<stop stop-color="#5083C2"/>
<stop offset="1" stop-color="#5082C2" stop-opacity="0"/>
</linearGradient>
<linearGradient id="paint11_linear_244_417" x1="946.893" y1="717.742" x2="1274.27" y2="717.742" gradientUnits="userSpaceOnUse">
<stop stop-color="#5083C2"/>
<stop offset="1" stop-color="#5082C2" stop-opacity="0"/>
</linearGradient>
<linearGradient id="paint12_linear_244_417" x1="839.358" y1="642.102" x2="1220.56" y2="642.102" gradientUnits="userSpaceOnUse">
<stop stop-color="#5083C2"/>
<stop offset="1" stop-color="#5082C2" stop-opacity="0"/>
</linearGradient>
<linearGradient id="paint13_linear_244_417" x1="735.018" y1="568.353" x2="1167.62" y2="568.353" gradientUnits="userSpaceOnUse">
<stop stop-color="#5083C2"/>
<stop offset="1" stop-color="#5082C2" stop-opacity="0"/>
</linearGradient>
<linearGradient id="paint14_linear_244_417" x1="633.731" y1="496.419" x2="1115.42" y2="496.419" gradientUnits="userSpaceOnUse">
<stop stop-color="#5083C2"/>
<stop offset="1" stop-color="#5082C2" stop-opacity="0"/>
</linearGradient>
<linearGradient id="paint15_linear_244_417" x1="535.367" y1="426.228" x2="1063.97" y2="426.228" gradientUnits="userSpaceOnUse">
<stop stop-color="#5083C2"/>
<stop offset="1" stop-color="#5082C2" stop-opacity="0"/>
</linearGradient>
<linearGradient id="paint16_linear_244_417" x1="439.798" y1="357.714" x2="1013.22" y2="357.714" gradientUnits="userSpaceOnUse">
<stop stop-color="#5083C2"/>
<stop offset="1" stop-color="#5082C2" stop-opacity="0"/>
</linearGradient>
<linearGradient id="paint17_linear_244_417" x1="346.908" y1="290.811" x2="963.188" y2="290.811" gradientUnits="userSpaceOnUse">
<stop stop-color="#5083C2"/>
<stop offset="1" stop-color="#5082C2" stop-opacity="0"/>
</linearGradient>
<linearGradient id="paint18_linear_244_417" x1="256.584" y1="225.461" x2="913.843" y2="225.461" gradientUnits="userSpaceOnUse">
<stop stop-color="#5083C2"/>
<stop offset="1" stop-color="#5082C2" stop-opacity="0"/>
</linearGradient>
<linearGradient id="paint19_linear_244_417" x1="168.722" y1="161.604" x2="865.175" y2="161.604" gradientUnits="userSpaceOnUse">
<stop stop-color="#5083C2"/>
<stop offset="1" stop-color="#5082C2" stop-opacity="0"/>
</linearGradient>
<linearGradient id="paint20_linear_244_417" x1="83.2216" y1="99.1875" x2="817.17" y2="99.1875" gradientUnits="userSpaceOnUse">
<stop stop-color="#5083C2"/>
<stop offset="1" stop-color="#5082C2" stop-opacity="0"/>
</linearGradient>
<linearGradient id="paint21_linear_244_417" x1="27.0412" y1="932.905" x2="492.13" y2="932.905" gradientUnits="userSpaceOnUse">
<stop stop-color="#5083C2"/>
<stop offset="1" stop-color="#5082C2" stop-opacity="0"/>
</linearGradient>
<linearGradient id="paint22_linear_244_417" x1="886.427" y1="901.526" x2="1271.18" y2="901.526" gradientUnits="userSpaceOnUse">
<stop stop-color="#5083C2"/>
<stop offset="1" stop-color="#5082C2" stop-opacity="0"/>
</linearGradient>
<linearGradient id="paint23_linear_244_417" x1="685.358" y1="527.593" x2="888.096" y2="527.593" gradientUnits="userSpaceOnUse">
<stop stop-color="#5083C2"/>
<stop offset="1" stop-color="#5082C2" stop-opacity="0"/>
</linearGradient>
</defs>
</svg>
