<svg width="156" height="37" viewBox="0 0 156 37" fill="none" xmlns="http://www.w3.org/2000/svg">
<g clip-path="url(#clip0_869_5460)">
<path fill-rule="evenodd" clip-rule="evenodd" d="M0 16.478L4.58658 8.23901L9.16895 0H27.5279L32.1145 8.23901L36.701 16.478L36.0067 17.7235C35.8553 17.6604 35.7122 17.5931 35.5607 17.53C34.9379 17.2817 34.2857 17.0966 33.6125 16.9409C33.2211 16.8483 32.8214 16.7852 32.3922 16.7389C31.9546 16.6926 31.5127 16.6716 31.0751 16.6758C27.8603 16.6758 26.2655 17.8666 24.515 19.1963C24.1321 19.4866 23.7408 19.7728 23.3495 20.0547C23.2359 20.1262 23.1349 20.202 23.0297 20.2777C22.9245 20.3535 22.8151 20.4166 22.7015 20.4881C22.4953 20.6186 22.3185 20.7111 22.1124 20.8121L21.9861 20.8752C20.8626 21.4643 19.4025 21.7252 17.9508 21.6705C16.4991 21.6158 15.0642 21.2371 13.987 20.5639C13.3474 20.1599 12.7835 19.7349 12.1986 19.272L12.064 19.1711C11.6179 18.8302 11.2098 18.5146 10.7721 18.2285C10.3261 17.9424 9.85483 17.673 9.29518 17.4248C7.81822 16.7768 6.00884 16.5832 4.24574 16.7599C2.98338 16.8904 1.73364 17.2102 0.648012 17.7025L0 16.4864L0 16.478ZM31.2518 30.0105C30.486 30.0105 29.7454 30.0947 29.089 30.2588C28.8029 30.3345 28.5546 30.4061 28.3148 30.4986C28.0707 30.5912 27.8308 30.7006 27.6036 30.8226C26.5895 31.3486 25.9668 31.8367 25.3145 32.3459C24.8601 32.7036 24.3888 33.0654 23.7745 33.461C23.5472 33.604 23.3158 33.7387 23.0802 33.8649C22.8487 33.9827 22.6173 34.1048 22.3606 34.2268C21.2119 34.7612 19.6718 35.0305 18.1485 35.0221C16.6632 35.0137 15.1736 34.7275 14.0627 34.1637C13.0823 33.6672 12.3964 33.1496 11.6853 32.6026C10.911 32.0135 10.0905 31.3949 8.81969 30.7469C7.91921 30.2967 6.71155 30.0568 5.47023 30.0274L9.18157 36.6968H27.5405L31.2518 30.0063V30.0105ZM33.3347 25.0284L32.1776 27.1029C31.8115 27.0734 31.4496 27.0566 31.0835 27.0566C27.8687 27.0566 26.2739 28.2558 24.5235 29.5771C24.1405 29.8632 23.7576 30.1494 23.3579 30.4271C23.2443 30.5113 23.1433 30.5744 23.0381 30.6501C22.9329 30.7259 22.8235 30.789 22.7099 30.8605C22.5037 30.991 22.327 31.0835 22.1208 31.1845L21.9945 31.2476C20.871 31.8367 19.4109 32.0976 17.9592 32.0429C16.5075 31.9882 15.0726 31.6095 13.9954 30.9363C13.3558 30.5323 12.7919 30.0989 12.207 29.6444L12.0724 29.5434C11.6263 29.2026 11.2182 28.887 10.7806 28.6009C10.3345 28.3148 9.86325 28.0454 9.3036 27.7972C7.89817 27.187 6.20661 26.9766 4.53188 27.1071L3.35788 24.9947C3.94698 24.8727 4.56975 24.818 5.19251 24.8096C6.51799 24.8012 7.83505 25.041 8.79865 25.5291C10.0736 26.1729 10.89 26.7915 11.6642 27.3848C12.3753 27.9276 13.0612 28.4452 14.0417 28.9459C15.1525 29.5182 16.6421 29.7959 18.1275 29.8043C19.6508 29.8128 21.1908 29.5477 22.3396 29.009C22.5963 28.8912 22.8403 28.7776 23.0675 28.6514C23.3032 28.5251 23.5346 28.3905 23.7618 28.2474C24.3762 27.8519 24.8391 27.49 25.3019 27.1323C25.9499 26.6232 26.5769 26.1351 27.591 25.6091C27.8308 25.4913 28.0623 25.3777 28.3105 25.2851C28.5504 25.1925 28.8113 25.121 29.0848 25.0452C30.242 24.7507 31.6306 24.7128 32.9476 24.9442C33.0739 24.9905 33.2043 25.02 33.3305 25.0368L33.3347 25.0284ZM35.1862 20.4502C34.5087 20.1262 33.7429 19.8948 32.9434 19.7602C31.6263 19.5287 30.2378 19.5666 29.0806 19.8611C28.7945 19.9369 28.5462 20.0084 28.3063 20.101C28.0665 20.1936 27.8266 20.2946 27.5952 20.425C26.5811 20.951 25.9583 21.4391 25.3061 21.9482C24.8517 22.3059 24.3804 22.6678 23.766 23.0633C23.5388 23.2064 23.3074 23.341 23.0717 23.4673C22.8361 23.5935 22.5921 23.7113 22.3522 23.825C21.2035 24.3594 19.6634 24.6287 18.1401 24.6202C16.6547 24.6118 15.1652 24.3257 14.0543 23.7618C13.0739 23.2653 12.3964 22.7477 11.6853 22.2007C10.911 21.6116 10.0905 20.9931 8.81969 20.345C7.84768 19.8569 6.53061 19.6171 5.21355 19.6255C3.9049 19.6339 2.59626 19.8948 1.62424 20.3997L1.52746 20.4545L2.53314 22.2638C3.1012 22.125 3.6903 22.0156 4.2794 21.9609C6.03408 21.7841 7.83926 21.9777 9.32043 22.6257C9.838 22.8487 10.3303 23.1138 10.7974 23.4294C11.235 23.7155 11.6516 24.0269 12.0892 24.372L12.2239 24.473C12.813 24.9232 13.3642 25.3566 14.0122 25.7648C15.0894 26.438 16.5243 26.8167 17.976 26.8715C19.4277 26.9262 20.8794 26.6695 22.0114 26.0762L22.1376 26.013C22.3354 25.9121 22.5331 25.8027 22.7267 25.689C22.8445 25.6133 22.9497 25.5502 23.0549 25.4786C23.1601 25.4029 23.2611 25.3398 23.3747 25.2556C23.7745 24.9779 24.1658 24.6834 24.5403 24.3972C26.295 23.076 27.8898 21.8767 31.1004 21.8767C31.5464 21.8767 31.9924 21.9062 32.4174 21.9525C32.8424 21.9987 33.2464 22.0619 33.6377 22.1544C33.8229 22.2007 34.0122 22.247 34.1889 22.2933L35.1946 20.446L35.1862 20.4502Z" fill="url(#paint0_linear_869_5460)"/>
<path d="M47.3343 28.4576L40.2861 8.9541H44.8643L49.0722 21.4052C49.1479 21.6156 49.2321 21.8638 49.3288 22.1584C49.4256 22.4529 49.5182 22.7391 49.615 23.0252C49.7076 23.3114 49.7875 23.5638 49.8422 23.791H50.0147C50.0905 23.5807 50.1704 23.3408 50.2546 23.0673C50.3387 22.7938 50.4271 22.5119 50.5113 22.2299C50.5954 21.9438 50.6754 21.6787 50.7511 21.4346L54.959 8.9541H59.3646L52.287 28.4576H47.3385H47.3343Z" fill="white"/>
<path d="M62.689 28.7989C62.1967 28.7989 61.6707 28.7441 61.1111 28.6263C60.5514 28.5127 60.0254 28.3107 59.5331 28.0162C59.0408 27.7216 58.6369 27.2966 58.3255 26.737C58.0141 26.1773 57.8584 25.462 57.8584 24.591C57.8584 23.5474 58.0856 22.6848 58.5401 22.0031C58.9945 21.3215 59.6425 20.7871 60.4883 20.3957C61.3299 20.0086 62.3398 19.7393 63.518 19.5836C64.692 19.4321 65.9922 19.3564 67.4145 19.3564V18.2497C67.4145 17.8121 67.3429 17.4334 67.1999 17.1136C67.0568 16.7896 66.8127 16.5371 66.4593 16.3478C66.11 16.1584 65.6219 16.0616 64.9949 16.0616C64.368 16.0616 63.863 16.1374 63.4759 16.2889C63.0888 16.4403 62.8111 16.6339 62.6512 16.8695C62.4913 17.1052 62.4113 17.3661 62.4113 17.6522V17.993H58.5737C58.5527 17.9005 58.5443 17.8079 58.5443 17.7237V17.3955C58.5443 16.5245 58.8094 15.7713 59.3396 15.1359C59.8698 14.5005 60.6188 14.0124 61.5866 13.6716C62.5544 13.3307 63.6821 13.1582 64.9697 13.1582C66.3541 13.1582 67.5155 13.3391 68.4538 13.6968C69.3922 14.0587 70.1117 14.5889 70.6124 15.2874C71.1132 15.9901 71.3657 16.8695 71.3657 17.9299V24.7256C71.3657 25.0665 71.4666 25.3189 71.6644 25.4788C71.8622 25.6387 72.0852 25.7187 72.3335 25.7187H73.2718V28.3065C73.0825 28.4033 72.7879 28.5001 72.3924 28.6053C71.9926 28.7105 71.5129 28.761 70.9407 28.761C70.3684 28.761 69.9013 28.681 69.4763 28.5211C69.0513 28.3612 68.6937 28.134 68.4117 27.8395C68.1256 27.5449 67.9278 27.1914 67.8142 26.7749H67.6164C67.2924 27.1746 66.9011 27.5239 66.4382 27.8268C65.9754 28.1298 65.4326 28.3654 64.8182 28.538C64.2039 28.7105 63.4969 28.7946 62.7017 28.7946L62.689 28.7989ZM64.0271 25.8155C64.5573 25.8155 65.0328 25.7355 65.4494 25.5756C65.866 25.4157 66.2152 25.1969 66.5014 24.9234C66.7875 24.6499 67.0063 24.3133 67.1704 23.9135C67.3303 23.5138 67.4103 23.0888 67.4103 22.6343V21.8096C66.3499 21.8096 65.4031 21.8811 64.5657 22.0242C63.7326 22.1672 63.072 22.4071 62.588 22.7479C62.1041 23.0888 61.8643 23.5643 61.8643 24.1702C61.8643 24.511 61.9484 24.8056 62.121 25.0496C62.2935 25.2979 62.5375 25.4873 62.8616 25.6177C63.1856 25.7481 63.5727 25.8155 64.0271 25.8155Z" fill="white"/>
<path d="M79.9997 28.7984C78.9561 28.7984 78.0177 28.6848 77.1846 28.4576C76.3514 28.2304 75.6403 27.9148 75.0512 27.5066C74.4621 27.0985 74.0119 26.6103 73.7005 26.0423C73.3891 25.4742 73.2334 24.8304 73.2334 24.1109V23.8836C73.2334 23.8079 73.2418 23.7532 73.2629 23.7111H77.071V23.9383C77.0878 24.4138 77.2435 24.7968 77.5254 25.0913C77.8116 25.3859 78.1819 25.6005 78.6489 25.7309C79.1118 25.8656 79.5999 25.9287 80.1133 25.9287C80.5677 25.9287 81.0095 25.8866 81.4345 25.8024C81.8595 25.7183 82.2214 25.5626 82.516 25.3354C82.8105 25.1081 82.9578 24.8136 82.9578 24.4559C82.9578 24.0015 82.7726 23.6522 82.4023 23.4039C82.0321 23.1557 81.5482 22.9579 80.9506 22.8064C80.3531 22.6549 79.7051 22.4866 79.0024 22.2973C78.3586 22.1458 77.7148 21.9691 77.071 21.7713C76.4272 21.5735 75.8423 21.3126 75.3247 20.9886C74.8029 20.6688 74.3821 20.2438 74.0581 19.7221C73.7341 19.2003 73.5742 18.5439 73.5742 17.7444C73.5742 16.9449 73.7468 16.2884 74.0876 15.712C74.4284 15.1355 74.8997 14.6558 75.493 14.2771C76.0905 13.8984 76.7891 13.6207 77.597 13.4397C78.4007 13.2588 79.2675 13.1704 80.1974 13.1704C81.0685 13.1704 81.8848 13.2588 82.6422 13.4397C83.3996 13.6207 84.0645 13.8857 84.6325 14.235C85.2006 14.5843 85.6466 15.0219 85.9664 15.5436C86.2904 16.0654 86.4503 16.6461 86.4503 17.2941V17.6644C86.4503 17.778 86.4419 17.8538 86.4209 17.8916H82.638V17.6644C82.638 17.3236 82.5328 17.0332 82.3266 16.7976C82.1162 16.562 81.8175 16.3768 81.4303 16.2422C81.0432 16.1117 80.5719 16.0444 80.0249 16.0444C79.6462 16.0444 79.3012 16.0738 78.9856 16.1285C78.6742 16.1875 78.4049 16.2716 78.1776 16.3852C77.9504 16.4988 77.7737 16.6377 77.6517 16.7976C77.5296 16.9575 77.4665 17.1511 77.4665 17.3783C77.4665 17.7023 77.6054 17.959 77.8789 18.1609C78.1524 18.3587 78.5185 18.527 78.9729 18.6575C79.4274 18.7921 79.9281 18.931 80.4794 19.0825C81.161 19.2718 81.8764 19.457 82.6254 19.6379C83.3744 19.8188 84.0687 20.0587 84.7125 20.3617C85.3563 20.6646 85.878 21.098 86.2778 21.6535C86.6775 22.2131 86.8753 22.9663 86.8753 23.9131C86.8753 24.8599 86.6986 25.592 86.3493 26.2148C86.0001 26.8376 85.512 27.3425 84.885 27.7212C84.258 28.0999 83.5301 28.3734 82.6969 28.546C81.8637 28.7185 80.9633 28.8026 79.9954 28.8026L79.9997 28.7984Z" fill="white"/>
<path d="M92.9353 28.7987C91.9886 28.7987 91.2185 28.6262 90.6336 28.2854C90.0445 27.9445 89.6195 27.4859 89.3544 26.9052C89.0893 26.3287 88.9547 25.6891 88.9547 24.9864V16.5412H87.1074V13.4989H89.0977L89.8383 9.23633H92.9101V13.4989H95.641V16.5412H92.9101V24.33C92.9101 24.7844 93.0153 25.1294 93.2215 25.3693C93.4318 25.6049 93.7727 25.7228 94.244 25.7228H95.6368V28.3401C95.4095 28.4158 95.1445 28.4873 94.8415 28.5547C94.5385 28.622 94.2145 28.6767 93.8737 28.723C93.5328 28.7693 93.2215 28.7945 92.9353 28.7945V28.7987Z" fill="white"/>
<path d="M97.2562 28.4576V8.9541H111.639V12.4214H101.489V17.252H110.557V20.6898H101.489V28.4492H97.252L97.2562 28.4576Z" fill="white"/>
<path d="M113.318 28.4578V7.90234H117.27V28.4578H113.318Z" fill="white"/>
<path d="M124.46 28.7987C122.945 28.7987 121.742 28.3821 120.85 27.549C119.957 26.7158 119.516 25.3693 119.516 23.5136V13.5073H123.467V22.8614C123.467 23.3537 123.522 23.7661 123.639 24.0985C123.753 24.431 123.917 24.7003 124.136 24.9107C124.355 25.121 124.624 25.2725 124.944 25.3651C125.264 25.4577 125.625 25.5082 126.025 25.5082C126.614 25.5082 127.144 25.3651 127.616 25.0832C128.087 24.8012 128.457 24.4057 128.722 23.905C128.988 23.4042 129.122 22.8404 129.122 22.2134V13.5157H133.073V28.4705H129.833L129.551 26.4213H129.354C128.992 26.8968 128.571 27.3133 128.087 27.671C127.603 28.0329 127.06 28.3106 126.454 28.5084C125.848 28.7061 125.184 28.8071 124.464 28.8071L124.46 28.7987Z" fill="white"/>
<path d="M135.435 11.3149V7.90234H139.386V11.3149H135.435ZM135.435 28.4578V13.503H139.386V28.4578H135.435Z" fill="white"/>
<path d="M147.032 28.7986C145.799 28.7986 144.734 28.5167 143.834 27.9613C142.933 27.4016 142.239 26.5432 141.746 25.3902C141.254 24.2331 141.006 22.7561 141.006 20.9552C141.006 19.1542 141.258 17.6814 141.759 16.5327C142.26 15.3881 142.954 14.5382 143.834 13.9869C144.713 13.4399 145.735 13.1622 146.888 13.1622C147.532 13.1622 148.134 13.2337 148.694 13.3768C149.253 13.5198 149.746 13.7429 150.171 14.0458C150.596 14.3488 150.962 14.7191 151.265 15.1525H151.437V7.90234H155.388V28.4578H152.148L151.837 26.438H151.639C151.147 27.2333 150.503 27.8266 149.708 28.2137C148.912 28.6009 148.02 28.7944 147.036 28.7944L147.032 28.7986ZM148.281 25.5586C149.022 25.5586 149.624 25.386 150.086 25.0452C150.549 24.7044 150.899 24.212 151.126 23.5682C151.353 22.9244 151.467 22.1586 151.467 21.2665V20.7532C151.467 20.0883 151.403 19.4824 151.281 18.9354C151.159 18.3841 150.966 17.9255 150.697 17.5552C150.431 17.1849 150.099 16.903 149.704 16.701C149.304 16.5032 148.832 16.4022 148.281 16.4022C147.486 16.4022 146.851 16.5579 146.375 16.8693C145.9 17.1807 145.559 17.6562 145.353 18.2916C145.142 18.927 145.041 19.718 145.041 20.6648V21.317C145.041 22.2638 145.146 23.0507 145.353 23.6776C145.559 24.3046 145.904 24.7717 146.375 25.0831C146.846 25.3945 147.482 25.5501 148.281 25.5501V25.5586Z" fill="white"/>
</g>
<defs>
<linearGradient id="paint0_linear_869_5460" x1="-2.22596" y1="15.3713" x2="38.927" y2="21.3297" gradientUnits="userSpaceOnUse">
<stop stop-color="#6DDCFF"/>
<stop offset="1" stop-color="#0157FF"/>
</linearGradient>
<clipPath id="clip0_869_5460">
<rect width="156" height="37" fill="white"/>
</clipPath>
</defs>
</svg>
