<svg width="24" height="24" viewBox="0 0 24 24" fill="none" xmlns="http://www.w3.org/2000/svg">
<g clip-path="url(#clip0_526_3817)">
<rect width="24" height="24" rx="6" fill="#5662F6"/>
<path d="M17.4323 7.24847C19.1272 9.7404 19.9642 12.5513 19.6513 15.7872C19.65 15.8009 19.6429 15.8135 19.6316 15.8217C18.3481 16.7642 17.1046 17.3361 15.8785 17.7154C15.8689 17.7183 15.8587 17.7182 15.8493 17.7149C15.8398 17.7118 15.8316 17.7057 15.8258 17.6976C15.5425 17.3035 15.2851 16.888 15.0597 16.4516C15.0467 16.4259 15.0586 16.3949 15.0852 16.3848C15.4939 16.2308 15.8827 16.0463 16.2565 15.8277C16.2859 15.8105 16.2878 15.7682 16.2606 15.748C16.1812 15.689 16.1026 15.6272 16.0275 15.5653C16.0134 15.5538 15.9944 15.5516 15.9785 15.5593C13.5513 16.6801 10.8924 16.6801 8.43645 15.5593C8.42055 15.5522 8.40157 15.5546 8.38785 15.5658C8.31285 15.6278 8.23402 15.689 8.15542 15.748C8.12827 15.7682 8.13052 15.8105 8.16015 15.8277C8.53402 16.0421 8.92267 16.2308 9.3309 16.3856C9.35737 16.3957 9.3699 16.4259 9.35677 16.4516C9.1362 16.8885 8.8788 17.304 8.59027 17.6981C8.57775 17.7141 8.55705 17.7214 8.53755 17.7154C7.31731 17.3361 6.07377 16.7642 4.79029 15.8217C4.77959 15.8135 4.7719 15.8003 4.77078 15.7866C4.50928 12.9876 5.04222 10.1535 6.98771 7.2479C6.9924 7.24022 6.99952 7.23421 7.00778 7.23065C7.96507 6.79131 8.99062 6.46809 10.0625 6.28351C10.082 6.28051 10.1015 6.28951 10.1116 6.30677C10.2441 6.54125 10.3954 6.84196 10.4979 7.0877C11.6278 6.91512 12.7752 6.91512 13.9287 7.0877C14.0311 6.84722 14.1772 6.54125 14.3092 6.30677C14.3138 6.29821 14.3211 6.29135 14.3299 6.28717C14.3388 6.28299 14.3487 6.28171 14.3583 6.28351C15.4307 6.46866 16.4563 6.79187 17.4128 7.23065C17.4212 7.23421 17.4282 7.24022 17.4323 7.24847ZM11.0722 12.5704C11.0841 11.7429 10.4808 11.0582 9.72352 11.0582C8.9724 11.0582 8.37495 11.7369 8.37495 12.5704C8.37495 13.4036 8.98425 14.0824 9.72352 14.0824C10.4748 14.0824 11.0722 13.4036 11.0722 12.5704ZM16.0588 12.5704C16.0706 11.7429 15.4673 11.0582 14.7102 11.0582C13.9589 11.0582 13.3615 11.7369 13.3615 12.5704C13.3615 13.4036 13.9707 14.0824 14.7102 14.0824C15.4673 14.0824 16.0588 13.4036 16.0588 12.5704Z" fill="white"/>
</g>
<defs>
<clipPath id="clip0_526_3817">
<rect width="24" height="24" rx="6" fill="white"/>
</clipPath>
</defs>
</svg>
