<svg width="24" height="24" viewBox="0 0 24 24" fill="none" xmlns="http://www.w3.org/2000/svg">
<g clip-path="url(#clip0_526_3821)">
<rect width="24" height="24" rx="6" fill="black"/>
<g clip-path="url(#clip1_526_3821)">
<path d="M9 7.5C10.1935 7.5 11.3381 7.97411 12.182 8.81802C13.0259 9.66193 13.5 10.8065 13.5 12C13.5 13.1935 13.0259 14.3381 12.182 15.182C11.3381 16.0259 10.1935 16.5 9 16.5C7.80653 16.5 6.66193 16.0259 5.81802 15.182C4.97411 14.3381 4.5 13.1935 4.5 12C4.5 10.8065 4.97411 9.66193 5.81802 8.81802C6.66193 7.97411 7.80653 7.5 9 7.5ZM15.75 8.25C16.875 8.25 17.625 9.92925 17.625 12C17.625 14.0707 16.875 15.75 15.75 15.75C14.625 15.75 13.875 14.0707 13.875 12C13.875 9.92925 14.625 8.25 15.75 8.25ZM18.75 8.625C19.035 8.625 19.284 9.24525 19.41 10.3095L19.4452 10.6418L19.4595 10.818L19.482 11.1885L19.4895 11.3828L19.4985 11.7885L19.5 12L19.4985 12.2115L19.4895 12.6172L19.482 12.8123L19.4595 13.182L19.4445 13.3582L19.4108 13.6905C19.284 14.7555 19.0358 15.375 18.75 15.375C18.465 15.375 18.216 14.7547 18.09 13.6905L18.0548 13.3582C18.0496 13.2995 18.0448 13.2408 18.0405 13.182L18.018 12.8115C18.0151 12.7468 18.0126 12.682 18.0105 12.6172L18.0015 12.2115V11.7885L18.0105 11.3828L18.018 11.1877L18.0405 10.818L18.0555 10.6418L18.0892 10.3095C18.216 9.2445 18.4642 8.625 18.75 8.625Z" fill="white"/>
</g>
</g>
<defs>
<clipPath id="clip0_526_3821">
<rect width="24" height="24" rx="6" fill="white"/>
</clipPath>
<clipPath id="clip1_526_3821">
<rect width="18" height="18" fill="white" transform="translate(3 3)"/>
</clipPath>
</defs>
</svg>
