<svg width="24" height="24" viewBox="0 0 24 24" fill="none" xmlns="http://www.w3.org/2000/svg">
<g clip-path="url(#clip0_526_3813)">
<rect width="24" height="24" rx="6" fill="#08A0E9"/>
<path d="M13.9414 7.31239V7.3103H14.4834L14.6815 7.34986C14.8135 7.37554 14.9334 7.40919 15.0411 7.45083C15.1488 7.49247 15.2531 7.54103 15.3538 7.5966C15.4546 7.6521 15.546 7.70865 15.628 7.76625C15.7093 7.82317 15.7823 7.88355 15.8469 7.94738C15.9108 8.01188 16.0106 8.02853 16.146 7.99733C16.2815 7.96613 16.4275 7.9227 16.5839 7.8672C16.7402 7.8117 16.8948 7.74923 17.0477 7.67985C17.2006 7.61048 17.2937 7.56638 17.3271 7.54763C17.3597 7.5282 17.3771 7.51778 17.3792 7.51643L17.3813 7.51328L17.3917 7.5081L17.4021 7.50285L17.4125 7.49767L17.423 7.49247L17.4251 7.48934L17.4282 7.48726L17.4313 7.48518L17.4334 7.48206L17.4438 7.47894L17.4542 7.47686L17.4521 7.49247L17.4491 7.5081L17.4438 7.5237L17.4386 7.5393L17.4334 7.54973L17.4282 7.56015L17.423 7.57575C17.4195 7.58617 17.4161 7.60005 17.4125 7.61737C17.4091 7.6347 17.3761 7.70415 17.3135 7.82558C17.251 7.947 17.1728 8.07022 17.079 8.1951C16.9852 8.32005 16.9011 8.4144 16.8267 8.47823C16.7517 8.5428 16.702 8.58788 16.6777 8.6136C16.6533 8.63993 16.6238 8.66422 16.589 8.68642L16.5369 8.72077L16.5265 8.72602L16.5161 8.7312L16.514 8.73435L16.5109 8.73638L16.5077 8.73848L16.5056 8.74163L16.4952 8.7468L16.4848 8.75205L16.4828 8.75513L16.4796 8.75723L16.4765 8.75933L16.4744 8.7624L16.4723 8.76555L16.4692 8.76765L16.466 8.76975L16.4639 8.77282H16.5161L16.808 8.71035C17.0025 8.66873 17.1884 8.6184 17.3657 8.55945L17.6471 8.46577L17.6783 8.45535L17.694 8.45018L17.7044 8.44493L17.7149 8.43975L17.7253 8.4345L17.7357 8.42933L17.7566 8.42618L17.7774 8.42415V8.44493L17.7722 8.44703L17.767 8.45018L17.7649 8.45325L17.7617 8.45535L17.7586 8.45745L17.7566 8.46052L17.7545 8.46367L17.7513 8.46577L17.7482 8.46787L17.7461 8.47095L17.744 8.4741L17.7409 8.4762L17.7357 8.48655L17.7305 8.49697L17.7273 8.49907C17.726 8.50117 17.6819 8.56012 17.5949 8.676C17.5081 8.79262 17.4612 8.85157 17.4542 8.853C17.4473 8.8551 17.4376 8.86545 17.4251 8.8842C17.4132 8.90363 17.3396 8.98102 17.204 9.11632C17.0686 9.2517 16.9358 9.37207 16.8059 9.47752C16.6752 9.58372 16.6092 9.71422 16.6079 9.86895C16.6058 10.023 16.5977 10.1972 16.5839 10.3915C16.5699 10.5858 16.5439 10.7957 16.5056 11.0212C16.4675 11.2468 16.4084 11.5019 16.3285 11.7864C16.2485 12.0709 16.1513 12.3485 16.0366 12.6191C15.9219 12.8898 15.8021 13.1326 15.677 13.3478C15.5519 13.5629 15.4372 13.7451 15.333 13.8943C15.2288 14.0435 15.1228 14.184 15.015 14.3159C14.9073 14.4478 14.7711 14.5963 14.6064 14.7614C14.441 14.9259 14.3507 15.0161 14.3354 15.032C14.3195 15.0473 14.2514 15.1042 14.1311 15.2028C14.0116 15.302 13.883 15.4012 13.7454 15.5005C13.6085 15.599 13.4828 15.6813 13.3681 15.7472C13.2534 15.8131 13.1151 15.8884 12.9532 15.973C12.792 16.0584 12.6176 16.1375 12.4299 16.2104C12.2423 16.2832 12.0443 16.351 11.8358 16.4134C11.6273 16.4759 11.4257 16.5245 11.2312 16.5591C11.0366 16.5938 10.816 16.6233 10.5692 16.6476L10.1992 16.684V16.6892H9.52164V16.684L9.43307 16.6789C9.37397 16.6754 9.32537 16.6719 9.28712 16.6684C9.24894 16.665 9.10472 16.6459 8.85452 16.6111C8.60439 16.5765 8.40804 16.5418 8.26562 16.507C8.12312 16.4724 7.91117 16.4065 7.62969 16.3093C7.34828 16.2122 7.10749 16.114 6.90735 16.0148C6.70791 15.9162 6.58282 15.8537 6.53209 15.8273C6.48206 15.8017 6.42577 15.7697 6.36322 15.7316L6.26941 15.6743L6.26733 15.6712L6.2642 15.6692L6.26107 15.6671L6.25899 15.6639L6.24856 15.6587L6.23813 15.6535L6.23606 15.6504L6.23292 15.6483L6.22979 15.6462L6.22771 15.6431L6.22564 15.64L6.2225 15.6379H6.21729V15.6171L6.22771 15.6191L6.23813 15.6223L6.28505 15.6274C6.31632 15.631 6.40145 15.6362 6.54043 15.6431C6.67942 15.65 6.82709 15.65 6.98345 15.6431C7.1398 15.6362 7.29964 15.6206 7.46295 15.5963C7.62624 15.5719 7.81907 15.5303 8.04144 15.4714C8.26382 15.4123 8.46819 15.3423 8.65442 15.2611C8.83997 15.1792 8.97197 15.1181 9.05049 15.0778C9.12834 15.0383 9.24714 14.9648 9.40697 14.8572L9.64674 14.6958L9.64884 14.6927L9.65199 14.6906L9.65507 14.6885L9.65717 14.6855L9.65927 14.6823L9.66242 14.6802L9.66549 14.6782L9.66759 14.675L9.67802 14.6719L9.68844 14.6698L9.69054 14.6594L9.69369 14.649L9.69677 14.6469L9.69887 14.6437L9.61547 14.6386C9.55989 14.6351 9.50604 14.6317 9.45392 14.6281C9.40179 14.6247 9.32012 14.6091 9.20897 14.5813C9.09774 14.5536 8.97789 14.5119 8.84934 14.4564C8.72079 14.4009 8.59569 14.335 8.47404 14.2586C8.35247 14.1823 8.26457 14.1188 8.21034 14.0681C8.15687 14.0182 8.08734 13.9474 8.00184 13.8558C7.91709 13.7635 7.84344 13.6688 7.78089 13.5716C7.71834 13.4744 7.65857 13.3624 7.60157 13.2354L7.51509 13.0459L7.50984 13.0304L7.50467 13.0147L7.50152 13.0043L7.49942 12.9939L7.51509 12.996L7.53069 12.9991L7.64537 13.0147C7.72179 13.0251 7.84172 13.0286 8.00499 13.0251C8.16827 13.0217 8.28122 13.0147 8.34377 13.0043C8.40632 12.9939 8.44457 12.9869 8.45844 12.9835L8.47929 12.9783L8.50532 12.973L8.53142 12.9679L8.53344 12.9647L8.53659 12.9626L8.53974 12.9606L8.54184 12.9574L8.52099 12.9523L8.50014 12.947L8.47929 12.9419L8.45844 12.9366L8.43759 12.9314C8.42372 12.928 8.39934 12.921 8.36462 12.9106C8.32989 12.9002 8.23607 12.8621 8.08314 12.7961C7.93029 12.7302 7.80864 12.666 7.71834 12.6035C7.62774 12.5409 7.54142 12.4723 7.45982 12.3985C7.37851 12.3235 7.28922 12.227 7.19192 12.109C7.09463 11.9911 7.00778 11.8541 6.93132 11.6979C6.85489 11.5418 6.79755 11.3926 6.75933 11.2503C6.72126 11.1088 6.69615 10.9643 6.68429 10.8183L6.66552 10.5997L6.67594 10.6018L6.68636 10.6049L6.69679 10.6101L6.70722 10.6154L6.71763 10.6205L6.72806 10.6257L6.88963 10.6986C6.99735 10.7472 7.13112 10.7888 7.29095 10.8235C7.45079 10.8582 7.54637 10.8773 7.57764 10.8808L7.62452 10.8859H7.71834L7.71624 10.8829L7.71309 10.8808L7.71002 10.8787L7.70792 10.8755L7.70582 10.8725L7.70267 10.8704L7.69959 10.8683L7.69749 10.8652L7.68707 10.8599L7.67664 10.8547L7.67454 10.8516L7.67139 10.8495L7.66832 10.8475L7.66622 10.8443L7.65579 10.8391L7.64537 10.8339L7.64327 10.8308C7.64117 10.8294 7.61132 10.8072 7.55364 10.7641C7.49664 10.7204 7.43688 10.6639 7.37434 10.5945C7.3118 10.5251 7.24926 10.4522 7.18671 10.3759C7.12405 10.2994 7.06824 10.2176 7.01993 10.1313C6.97129 10.0445 6.91986 9.9342 6.86565 9.80025C6.81215 9.66698 6.7715 9.53272 6.74369 9.39742C6.71591 9.26205 6.70027 9.12847 6.69679 8.99662C6.69332 8.86477 6.69679 8.75205 6.70722 8.6583C6.71763 8.56463 6.73848 8.4588 6.76976 8.34083C6.80102 8.22285 6.8462 8.09798 6.90527 7.96613L6.99386 7.76835L6.99908 7.75267L7.00429 7.73708L7.00743 7.73498L7.0095 7.7319L7.01159 7.72875L7.01472 7.72665L7.01786 7.72875L7.01993 7.7319L7.02201 7.73498L7.02514 7.73708L7.02828 7.73918L7.03035 7.74233L7.03244 7.7454L7.03556 7.7475L7.04078 7.75792L7.04599 7.76835L7.04912 7.77038L7.0512 7.77353L7.19192 7.92967C7.28573 8.03377 7.39693 8.15002 7.52552 8.27835C7.65407 8.40675 7.72532 8.47335 7.73919 8.47823C7.75307 8.48378 7.77047 8.49975 7.79132 8.52615C7.81217 8.5518 7.88162 8.61322 7.99974 8.71035C8.11794 8.80755 8.27252 8.92028 8.46362 9.04868C8.65472 9.17708 8.86667 9.30375 9.09947 9.42862C9.33227 9.55357 9.58247 9.6663 9.84999 9.76695C10.1176 9.8676 10.3052 9.93352 10.4129 9.96472C10.5206 9.99592 10.7048 10.0358 10.9654 10.0844C11.2259 10.133 11.4223 10.1642 11.5543 10.1781C11.6864 10.192 11.7767 10.2 11.8253 10.202L11.8983 10.2041L11.8962 10.1885L11.8931 10.1729L11.8722 10.0428C11.8583 9.95602 11.8514 9.8346 11.8514 9.67845C11.8514 9.5223 11.8636 9.3783 11.8879 9.24645C11.9122 9.1146 11.9487 8.98103 11.9973 8.84573C12.046 8.71035 12.0936 8.60175 12.1401 8.51985C12.1874 8.4387 12.2492 8.34607 12.3257 8.24197C12.4022 8.13787 12.5012 8.03032 12.6227 7.91925C12.7444 7.80825 12.8834 7.70932 13.0397 7.62255C13.1961 7.53585 13.3403 7.46991 13.4723 7.42481C13.6043 7.3797 13.7156 7.3502 13.8059 7.33633C13.8962 7.32245 13.9414 7.31447 13.9414 7.31239Z" fill="white"/>
</g>
<defs>
<clipPath id="clip0_526_3813">
<rect width="24" height="24" rx="6" fill="white"/>
</clipPath>
</defs>
</svg>
