<svg width="24" height="24" viewBox="0 0 24 24" fill="none" xmlns="http://www.w3.org/2000/svg">
<rect width="24" height="24" rx="12" fill="url(#paint0_linear_496_1359)"/>
<path fill-rule="evenodd" clip-rule="evenodd" d="M4.5 11.2345L6.37409 7.86727L8.24818 4.5H12H15.7518L17.6259 7.86727L19.5 11.2345L19.2162 11.7436C19.1543 11.7172 19.0961 11.6908 19.0342 11.6644C18.7795 11.5626 18.5138 11.4872 18.2373 11.4231C18.0771 11.3854 17.9134 11.359 17.7387 11.3401C17.5604 11.3213 17.3821 11.3137 17.2001 11.3137C15.8865 11.3137 15.2351 11.8002 14.5182 12.3431C14.3654 12.46 14.2052 12.5769 14.0415 12.6938C13.9942 12.724 13.9541 12.7541 13.9105 12.7843C13.8668 12.8145 13.8231 12.8409 13.7758 12.871C13.6921 12.9238 13.6194 12.9615 13.5357 13.003L13.4847 13.0294C13.0262 13.2707 12.4294 13.3763 11.8362 13.3537C11.2431 13.3311 10.6572 13.1765 10.2169 12.9012C9.95488 12.7353 9.72562 12.5618 9.48544 12.3733L9.43086 12.3318C9.24891 12.1923 9.08151 12.0641 8.9032 11.9472C8.72125 11.8303 8.52839 11.721 8.29913 11.6192C7.69505 11.3552 6.95633 11.276 6.23581 11.3477C5.71907 11.4005 5.20961 11.5324 4.76565 11.7323L4.5 11.2345ZM17.2729 16.7662C16.96 16.7662 16.6579 16.8002 16.3886 16.868C16.2722 16.8982 16.1703 16.9284 16.0721 16.9661C15.9738 17.0038 15.8792 17.0453 15.7809 17.098C15.3661 17.313 15.1114 17.5128 14.8457 17.7202C14.6601 17.8673 14.4672 18.0143 14.2162 18.1765C14.1215 18.2368 14.0306 18.2896 13.9323 18.3424C13.8377 18.3914 13.7431 18.4404 13.6376 18.4894C13.1681 18.7081 12.5386 18.8175 11.9163 18.8137C11.3086 18.81 10.7009 18.6931 10.246 18.463C9.84571 18.2594 9.5655 18.0483 9.27438 17.8258C8.95779 17.5845 8.623 17.3318 8.10262 17.0679C7.73508 16.8831 7.24017 16.7851 6.73435 16.7738L8.25182 19.5H12.0036H15.7555L17.2729 16.7662ZM18.1245 14.73L17.6514 15.5784C17.5058 15.5671 17.353 15.5596 17.2038 15.5596C15.8901 15.5596 15.2387 16.0498 14.5218 16.589C14.3654 16.7059 14.2089 16.8228 14.0451 16.9359C13.9978 16.9698 13.9578 16.9962 13.9141 17.0264C13.8705 17.0566 13.8268 17.083 13.7795 17.1131C13.6958 17.1659 13.623 17.2036 13.5393 17.2451L13.4884 17.2715C13.0298 17.5128 12.433 17.6184 11.8399 17.5958C11.2467 17.5732 10.6608 17.4186 10.2205 17.1433C9.95852 16.9774 9.72926 16.8002 9.48908 16.6154L9.4345 16.5739C9.25255 16.4344 9.08515 16.3062 8.90684 16.1893C8.72489 16.0724 8.53202 15.963 8.30276 15.8612C7.7278 15.6124 7.03639 15.5256 6.35225 15.5784L5.87191 14.7149C6.11208 14.6659 6.36681 14.6433 6.62154 14.6395C7.16376 14.6357 7.70233 14.7338 8.09534 14.9336C8.61572 15.1976 8.95051 15.4502 9.2671 15.6916C9.55822 15.914 9.83843 16.1252 10.2387 16.3288C10.6936 16.5626 11.3013 16.6757 11.909 16.6795C12.5313 16.6833 13.1608 16.5739 13.6303 16.3552C13.7358 16.3062 13.8341 16.2609 13.9287 16.2081C14.0269 16.1554 14.1179 16.1026 14.2125 16.0422C14.4636 15.8801 14.6528 15.733 14.8421 15.586C15.1077 15.3786 15.3624 15.1787 15.7773 14.9638C15.8755 14.9148 15.9702 14.8695 16.0721 14.8318C16.1703 14.7941 16.2758 14.764 16.3886 14.7338C16.8617 14.6131 17.4294 14.598 17.968 14.6923C18.0189 14.7112 18.0735 14.7225 18.1245 14.73ZM18.8814 12.8597C18.6048 12.7278 18.2918 12.6335 17.9643 12.5769C17.4258 12.4827 16.8581 12.4977 16.385 12.6184C16.2686 12.6486 16.1667 12.6787 16.0684 12.7164C15.9702 12.7542 15.8719 12.7956 15.7773 12.8484C15.3624 13.0633 15.1077 13.2632 14.8421 13.4706C14.6565 13.6177 14.4636 13.7647 14.2125 13.9268C14.1179 13.9872 14.0269 14.04 13.9287 14.0928C13.8341 14.1418 13.7394 14.1908 13.6339 14.2398C13.1645 14.4585 12.5349 14.5679 11.9127 14.5641C11.305 14.5603 10.6972 14.4434 10.2424 14.2134C9.84207 14.0098 9.5655 13.7986 9.27438 13.5762C8.95779 13.3348 8.623 13.0822 8.10262 12.8182C7.70597 12.6184 7.16739 12.5204 6.62882 12.5241C6.09389 12.5279 5.55895 12.6335 5.1623 12.8409L5.12227 12.8635L5.53348 13.6026C5.76637 13.546 6.00655 13.5008 6.24672 13.4781C6.96361 13.4065 7.70233 13.4857 8.3064 13.7496C8.53566 13.8477 8.72853 13.957 8.91048 14.0777C9.08879 14.1946 9.25983 14.3228 9.43814 14.4623L9.49272 14.5038C9.7329 14.6885 9.95851 14.8658 10.2242 15.0317C10.6645 15.3069 11.2504 15.4615 11.8435 15.4842C12.4367 15.5068 13.0298 15.4012 13.492 15.1599L13.5429 15.1335C13.623 15.092 13.6994 15.0505 13.7831 15.0015C13.8304 14.9713 13.8741 14.945 13.9178 14.9148C13.9614 14.8846 14.0015 14.8582 14.0488 14.8243C14.2125 14.7112 14.3726 14.5905 14.5255 14.4736C15.2424 13.9344 15.8937 13.4442 17.2074 13.4442C17.3894 13.4442 17.5713 13.4555 17.746 13.4744C17.9207 13.4932 18.0844 13.5196 18.2445 13.5573C18.321 13.5762 18.3974 13.595 18.4702 13.6139L18.8814 12.8597Z" fill="white"/>
<defs>
<linearGradient id="paint0_linear_496_1359" x1="0" y1="0" x2="26.9101" y2="3.89518" gradientUnits="userSpaceOnUse">
<stop stop-color="#6DDCFF"/>
<stop offset="1" stop-color="#0157FF"/>
</linearGradient>
</defs>
</svg>
